# xmcd
#
# Track frame offsets:
#	150
#	13196
#	27234
#	41826
#	54274
#	68812
#	82039
#	96411
#	112005
#	127051
#
# Disc length: 1887 seconds
#
# Revision: 0
# Processed by: cddbd v1.5.2PL0 Copyright (c) Steve Scherf et al.
# Submitted via: EasyCDDAExtractor 16.0.6.1
#
DISCID=8b075d0a
DTITLE=Συλλογικός δίσκος - Λαϊκό τραγούδι 1954-1967, 1957-5
DYEAR=2008
DGENRE=Λαϊκή
TTITLE0=Πάνου Πόλυ - Θέλω γλέντι, θέλω τρέλλες [Χρήστος Κολοκοτρώνης]
TTITLE1=Καζαντζίδης Στέλιος - Πεθαίνω για το δίκιο μου [Βασίλης Τσιτσάνης-Δημή
TTITLE1=τρης Γκούτης]
TTITLE2=Λύδια Γιώτα-Τσιτσάνης Βασίλης - Αράπικο τσιφτετέλι [Βασίλης Τσιτσάνης]
TTITLE3=Καζαντζίδης Στέλιος - Δεν ζωντανεύουν οι νεκροί [Μπάμπης Μπακάλης-Δημή
TTITLE3=τρης Γκούτης]
TTITLE4=Μπιθικώτσης Γρηγόρης-Γκρέζη Νίτσα - Ο Κώστας [Μπάμπης Μπακάλης]
TTITLE5=Πάνου Πόλυ - Το φτωχοκόριτσο [Παναγιώτης Πετσάς]
TTITLE6=Γκρέϋ Καίτη - Μιά γυφτοπούλα αγάπησα [Θεόδωρος Δερβενιώτης-Χρ. Κολοκοτ
TTITLE6=ρώνης]
TTITLE7=Καζαντζίδης Στέλιος - Πες μου τι Θεό λατρεύεις [Γιάννης Παπαϊωάννου]
TTITLE8=Γαβαλάς Πάνος-Γκίκα Βούλα - Απόψε πάλι γλυκά θα τραγουδήσω [Πάνος Γαβα
TTITLE8=λάς]
TTITLE9=Πάνου Πόλυ - Θα σ' εκδικηθώ [Γιώργος Μητσάκης]
EXTD=
EXTT0=
EXTT1=
EXTT2=
EXTT3=
EXTT4=
EXTT5=
EXTT6=
EXTT7=
EXTT8=
EXTT9=
PLAYORDER=
